<svg xmlns="http://www.w3.org/2000/svg" viewBox="0 0 64 64"><title>Dateinputfield</title><path d="M40.61,20.7V19.16H40V20.7H32.61V19.16H32V20.7H24.62V19.16H24V20.7H20.49V42.79h23V20.7ZM42.9,42.18H21.1V25.35H42.9Zm0-17.44H21.1V21.31H24v1.55h.62V21.31H32v1.55h.61V21.31H40v1.55h.61V21.31H42.9Z" style="fill:#231f20"/><rect x="31.19" y="36.34" width="1.6" height="1.6" style="fill:#fff"/><rect x="31.19" y="32.96" width="1.6" height="1.6" style="fill:#fff"/><rect x="31.19" y="39.73" width="1.6" height="1.6" style="fill:#fff"/><rect x="28.08" y="29.58" width="1.6" height="1.6" style="fill:#fff"/><rect x="34.3" y="29.58" width="1.6" height="1.6" style="fill:#fff"/><rect x="28.08" y="36.34" width="1.6" height="1.6" style="fill:#fff"/><rect x="31.19" y="29.58" width="1.6" height="1.6" style="fill:#fff"/><rect x="34.3" y="36.34" width="1.6" height="1.6" style="fill:#fff"/><rect x="34.3" y="32.96" width="1.6" height="1.6" style="fill:#fff"/><rect x="34.3" y="39.73" width="1.6" height="1.6" style="fill:#fff"/><rect x="28.08" y="32.96" width="1.6" height="1.6" style="fill:#fff"/><rect x="21.85" y="32.96" width="1.6" height="1.6" style="fill:#fff"/><rect x="21.85" y="29.58" width="1.6" height="1.6" style="fill:#fff"/><rect x="21.85" y="36.34" width="1.6" height="1.6" style="fill:#fff"/><rect x="21.85" y="39.73" width="1.6" height="1.6" style="fill:#fff"/><rect x="24.96" y="39.73" width="1.6" height="1.6" style="fill:#fff"/><rect x="24.96" y="32.96" width="1.6" height="1.6" style="fill:#fff"/><rect x="24.96" y="29.58" width="1.6" height="1.6" style="fill:#fff"/><rect x="24.96" y="36.34" width="1.6" height="1.6" style="fill:#fff"/><rect x="28.08" y="39.73" width="1.6" height="1.6" style="fill:#fff"/><rect x="37.42" y="29.58" width="1.6" height="1.6" style="fill:#fff"/><rect x="37.42" y="39.73" width="1.6" height="1.6" style="fill:#fff"/><rect x="40.53" y="26.2" width="1.6" height="1.6" style="fill:#fff"/><rect x="37.42" y="36.34" width="1.6" height="1.6" style="fill:#fff"/><rect x="40.53" y="36.34" width="1.6" height="1.6" style="fill:#fff"/><rect x="40.53" y="32.96" width="1.6" height="1.6" style="fill:#fff"/><rect x="40.53" y="29.58" width="1.6" height="1.6" style="fill:#fff"/><rect x="34.3" y="26.2" width="1.6" height="1.6" style="fill:#fff"/><rect x="37.42" y="32.96" width="1.6" height="1.6" style="fill:#fff"/><rect x="40.53" y="39.73" width="1.6" height="1.6" style="fill:#fff"/><path d="M21.1,25.35V42.18H42.9V25.35Zm2.66,16.28H21.54V39.42h2.22Zm0-3.38H21.54V36h2.22Zm0-3.38H21.54V32.66h2.22Zm0-3.38H21.54V29.28h2.22Zm3.11,10.14H24.65V39.42h2.22Zm0-3.38H24.66V36h2.21Zm0-3.38H24.66V32.66h2.21Zm0-3.38H24.66V29.28h2.21ZM30,41.63H27.77V39.42H30Zm0-3.38H27.77V36H30Zm0-3.38H27.77V32.66H30Zm0-3.38H27.77V29.28H30ZM33.1,41.63H30.88V39.42H33.1Zm0-3.38H30.88V36H33.1Zm0-3.38H30.88V32.66H33.1Zm0-3.38H30.88V29.28H33.1Zm3.11,10.14H34V39.42h2.21Zm0-3.38H34V36h2.21Zm0-3.38H34V32.66h2.21Zm0-3.38H34V29.28h2.21Zm0-3.38H34V25.9h2.21Zm3.11,13.52H37.11V39.42h2.21Zm0-3.38H37.11V36h2.21Zm0-3.38H37.11V32.66h2.21Zm0-3.38H37.11V29.28h2.21Zm0-3.38H37.11V25.9h2.21Zm3.12,13.52H40.22V39.42h2.22Zm0-3.38H40.22V36h2.22Zm0-3.38H40.22V32.66h2.22Zm0-3.38H40.22V29.28h2.22Zm0-3.38H40.22V25.9h2.22Z" style="fill:#fff"/><path d="M21.54,31.49h2.22V29.28H21.54Zm.31-1.91h1.6v1.61h-1.6Z"/><path d="M21.54,34.87h2.22V32.66H21.54ZM21.85,33h1.6v1.61h-1.6Z"/><path d="M21.54,38.25h2.22V36H21.54Zm.31-1.91h1.6V38h-1.6Z"/><path d="M21.54,41.63h2.22V39.42H21.54Zm.31-1.9h1.6v1.6h-1.6Z"/><path d="M40.22,28.11h2.22V25.9H40.22Zm.31-1.91h1.6v1.61h-1.6Z"/><path d="M40.22,31.49h2.22V29.28H40.22Zm.31-1.91h1.6v1.61h-1.6Z"/><path d="M40.22,34.87h2.22V32.66H40.22ZM40.53,33h1.6v1.61h-1.6Z"/><path d="M40.22,38.25h2.22V36H40.22Zm.31-1.91h1.6V38h-1.6Z"/><path d="M40.22,41.63h2.22V39.42H40.22Zm.31-1.9h1.6v1.6h-1.6Z"/><path d="M24.66,31.49h2.21V29.28H24.66Zm.3-1.91h1.6v1.61H25Z"/><path d="M24.66,34.87h2.21V32.66H24.66ZM25,33h1.6v1.61H25Z"/><path d="M24.66,38.25h2.21V36H24.66Zm.3-1.91h1.6V38H25Z"/><path d="M24.65,41.63h2.22V39.42H24.65Zm.31-1.9h1.6v1.6H25Z"/><path d="M27.77,31.49H30V29.28H27.77Zm.31-1.91h1.6v1.61h-1.6Z"/><path d="M27.77,34.87H30V32.66H27.77ZM28.08,33h1.6v1.61h-1.6Z"/><path d="M27.77,38.25H30V36H27.77Zm.31-1.91h1.6V38h-1.6Z"/><path d="M27.77,41.63H30V39.42H27.77Zm.31-1.9h1.6v1.6h-1.6Z"/><path d="M30.88,31.49H33.1V29.28H30.88Zm.31-1.91h1.6v1.61h-1.6Z"/><path d="M30.88,34.87H33.1V32.66H30.88ZM31.19,33h1.6v1.61h-1.6Z"/><path d="M30.88,38.25H33.1V36H30.88Zm.31-1.91h1.6V38h-1.6Z"/><path d="M30.88,41.63H33.1V39.42H30.88Zm.31-1.9h1.6v1.6h-1.6Z"/><path d="M34,28.11h2.21V25.9H34Zm.3-1.91h1.6v1.61H34.3Z"/><path d="M34,31.49h2.21V29.28H34Zm.3-1.91h1.6v1.61H34.3Z"/><path d="M34,34.87h2.21V32.66H34ZM34.3,33h1.6v1.61H34.3Z"/><path d="M34,38.25h2.21V36H34Zm.3-1.91h1.6V38H34.3Z"/><path d="M34,41.63h2.21V39.42H34Zm.3-1.9h1.6v1.6H34.3Z"/><rect x="37.11" y="25.9" width="2.22" height="2.22"/><path d="M37.11,31.49h2.21V29.28H37.11Zm.31-1.91H39v1.61h-1.6Z"/><path d="M37.11,34.87h2.21V32.66H37.11ZM37.42,33H39v1.61h-1.6Z"/><path d="M37.11,38.25h2.21V36H37.11Zm.31-1.91H39V38h-1.6Z"/><path d="M37.11,41.63h2.21V39.42H37.11Zm.31-1.9H39v1.6h-1.6Z"/></svg>