<svg xmlns="http://www.w3.org/2000/svg" viewBox="0 0 64 64"><title>FileInputfield</title><rect x="16.18" y="27.89" width="33.7" height="8.21" style="fill:none;stroke:#231f20;stroke-miterlimit:10"/><circle cx="18.08" cy="29.45" r="0.53" style="fill:#231f20"/><circle cx="18.08" cy="34.55" r="0.53" style="fill:#231f20"/><circle cx="18.08" cy="32" r="0.53" style="fill:#231f20"/><circle cx="19.67" cy="29.45" r="0.53" style="fill:#231f20"/><circle cx="19.67" cy="34.55" r="0.53" style="fill:#231f20"/><circle cx="19.67" cy="32" r="0.53" style="fill:#231f20"/><g style="opacity:0.61"><rect x="14.12" y="16.39" width="33.7" height="8.21" style="fill:none;stroke:#231f20;stroke-miterlimit:10;stroke-dasharray:3"/><circle cx="16.03" cy="17.95" r="0.53" style="fill:#231f20"/><circle cx="16.03" cy="23.04" r="0.53" style="fill:#231f20"/><circle cx="16.03" cy="20.49" r="0.53" style="fill:#231f20"/><circle cx="17.62" cy="17.95" r="0.53" style="fill:#231f20"/><circle cx="17.62" cy="23.04" r="0.53" style="fill:#231f20"/><circle cx="17.62" cy="20.49" r="0.53" style="fill:#231f20"/></g><g style="opacity:0.61"><rect x="14.12" y="39.4" width="33.7" height="8.21" style="fill:none;stroke:#231f20;stroke-miterlimit:10;stroke-dasharray:3"/><circle cx="16.03" cy="40.96" r="0.53" style="fill:#231f20"/><circle cx="16.03" cy="46.05" r="0.53" style="fill:#231f20"/><circle cx="16.03" cy="43.51" r="0.53" style="fill:#231f20"/><circle cx="17.62" cy="40.96" r="0.53" style="fill:#231f20"/><circle cx="17.62" cy="46.05" r="0.53" style="fill:#231f20"/><circle cx="17.62" cy="43.51" r="0.53" style="fill:#231f20"/></g></svg>