<svg xmlns="http://www.w3.org/2000/svg" viewBox="0 0 64 64"><title>NumbersInputfield</title><line x1="56.69" y1="25.5" x2="56.69" y2="38.5" style="fill:none;stroke:#231f20;stroke-miterlimit:10"/><path d="M13,33a4,4,0,0,1-.76,2.61,2.51,2.51,0,0,1-2.09.91,2.57,2.57,0,0,1-2.08-.91A4,4,0,0,1,7.32,33V31a4,4,0,0,1,.75-2.6,2.53,2.53,0,0,1,2.09-.92,2.53,2.53,0,0,1,2.08.92A4,4,0,0,1,13,31Zm-1.2-2.36A2.92,2.92,0,0,0,11.35,29a1.39,1.39,0,0,0-1.22-.58A1.39,1.39,0,0,0,8.94,29a3,3,0,0,0-.42,1.74V33.3A3,3,0,0,0,9,35a1.37,1.37,0,0,0,1.21.59A1.35,1.35,0,0,0,11.35,35a3,3,0,0,0,.42-1.74Z" style="fill:#231f20"/><path d="M14.48,35.67l1.38-.17V28.87H14.48v-.75l2.6-.57v8l1.37.18v.77h-4Z" style="fill:#231f20"/><path d="M19.61,35.67,21,35.5V28.87H19.58v-.75l2.61-.57v8l1.36.18v.77H19.61Z" style="fill:#231f20"/><path d="M24.76,35.67l1.38-.17V28.87h-1.4v-.75l2.6-.57v8l1.37.18v.77H24.76Z" style="fill:#231f20"/><path d="M35.58,33a3.88,3.88,0,0,1-.76,2.61,2.5,2.5,0,0,1-2.08.91,2.58,2.58,0,0,1-2.09-.91A4,4,0,0,1,29.92,33V31a4,4,0,0,1,.75-2.6,2.82,2.82,0,0,1,4.17,0A3.86,3.86,0,0,1,35.6,31Zm-1.21-2.36A2.94,2.94,0,0,0,34,28.94a1.54,1.54,0,0,0-2.17-.25,1.18,1.18,0,0,0-.25.25,3,3,0,0,0-.42,1.74v2.61A3,3,0,0,0,31.55,35a1.53,1.53,0,0,0,2.15.27A1.72,1.72,0,0,0,34,35a3.11,3.11,0,0,0,.4-1.74Z" style="fill:#231f20"/><path d="M37.05,35.67l1.41-.17V28.87h-1.4v-.75l2.6-.57v8l1.37.18v.77h-4Z" style="fill:#231f20"/><path d="M47.84,33a3.88,3.88,0,0,1-.76,2.61,2.5,2.5,0,0,1-2.08.91,2.58,2.58,0,0,1-2.09-.91,4,4,0,0,1-.7-2.61V31a4,4,0,0,1,.75-2.6,2.82,2.82,0,0,1,4.17,0,4,4,0,0,1,.71,2.6Zm-1.21-2.36a2.94,2.94,0,0,0-.41-1.74,1.54,1.54,0,0,0-2.17-.25,1.18,1.18,0,0,0-.25.25,3,3,0,0,0-.42,1.74v2.61A3,3,0,0,0,43.81,35,1.53,1.53,0,0,0,46,35.3a1.72,1.72,0,0,0,.27-.27,3.11,3.11,0,0,0,.4-1.74Z" style="fill:#231f20"/><path d="M55,33a3.93,3.93,0,0,1-.75,2.61,2.81,2.81,0,0,1-4,.18l-.18-.18A4,4,0,0,1,49.34,33V31a4,4,0,0,1,.76-2.6,2.49,2.49,0,0,1,2.09-.92,2.53,2.53,0,0,1,2.08.92A3.86,3.86,0,0,1,55,31Zm-1.2-2.36a3,3,0,0,0-.41-1.74,1.39,1.39,0,0,0-1.22-.58,1.38,1.38,0,0,0-1.21.58,3,3,0,0,0-.42,1.74v2.61A3,3,0,0,0,51,35a1.54,1.54,0,0,0,2.42,0,2.94,2.94,0,0,0,.41-1.74Z" style="fill:#231f20"/></svg>