<svg xmlns="http://www.w3.org/2000/svg" viewBox="0 0 64 64"><title>TextareaInputfield</title><path d="M27.78,18.5v2.55H26.44l-.11-1.32H23.77v9.08l1.29.23v1H20.91V29l1.3-.23V19.73H19.64l-.11,1.32H18.19V18.5Z" style="fill:#231f20"/><rect x="44.81" y="38.07" width="1" height="8.31" style="fill:#231f20"/><rect x="29.15" y="18.57" width="16.67" height="1" style="fill:#231f20"/><rect x="29.15" y="20.77" width="16.67" height="1" style="fill:#231f20"/><rect x="29.15" y="22.97" width="16.67" height="1" style="fill:#231f20"/><rect x="29.15" y="25.17" width="16.67" height="1" style="fill:#231f20"/><rect x="29.15" y="27.38" width="16.67" height="1" style="fill:#231f20"/><rect x="29.15" y="29.58" width="16.67" height="1" style="fill:#231f20"/><rect x="18.19" y="31.78" width="27.62" height="1" style="fill:#231f20"/><rect x="18.19" y="45" width="25.41" height="1" style="fill:#231f20"/><rect x="18.19" y="40.6" width="25.41" height="1" style="fill:#231f20"/><rect x="18.19" y="36.19" width="27.62" height="1" style="fill:#231f20"/><rect x="18.19" y="38.39" width="25.41" height="1" style="fill:#231f20"/><rect x="18.19" y="33.99" width="27.62" height="1" style="fill:#231f20"/><rect x="18.19" y="42.79" width="25.41" height="1" style="fill:#231f20"/></svg>